<svg width="260" height="90" viewBox="0 0 260 90" fill="none" xmlns="http://www.w3.org/2000/svg">
  <rect width="260" height="90" fill="white"/>
  <g transform="translate(12 14)">
    <polygon points="30,16 70,0 110,16 110,22 30,22" fill="#5F7D5A"/>
    <rect x="40" y="22" width="60" height="34" fill="#5F7D5A"/>
    <rect x="62" y="30" width="16" height="16" fill="#fff" stroke="#5F7D5A" stroke-width="2"/>
    <line x1="70" y1="30" x2="70" y2="46" stroke="#5F7D5A" stroke-width="2"/>
    <line x1="62" y1="38" x2="78" y2="38" stroke="#5F7D5A" stroke-width="2"/>
    <g stroke="#6B5B4B" stroke-width="3" stroke-linecap="round">
      <path d="M70 56 C66 64, 60 70, 52 74"/>
      <path d="M70 56 C74 64, 80 70, 88 74"/>
      <path d="M70 56 C70 65, 68 72, 66 80"/>
      <path d="M70 56 C72 63, 74 69, 78 76"/>
      <path d="M70 56 C64 63, 58 68, 50 70"/>
      <path d="M70 56 C78 62, 86 66, 94 66"/>
    </g>
  </g>
  <text x="140" y="52" fill="#6B5B4B" font-family="Georgia, 'Times New Roman', serif" font-size="32" font-weight="600">
    Build
    <tspan fill="#5F7D5A">Rootz</tspan>
  </text>
</svg>
